<svg viewBox="0 0 888 200" xmlns="http://www.w3.org/2000/svg">
  <path d="m311.721 154.013h236.779v33.703h-236.779z" fill="none" />
  <path
    d="m326.999 151.576h1.38l22.451 31.697h.092v-31.697h.92v32.848h-1.38l-22.45-31.697h-.092v31.697h-.92v-32.848zm39.284 8.649c6.901 0 10.627 5.936 10.627 12.375 0 6.486-3.726 12.375-10.673 12.375-6.901 0-10.627-5.889-10.627-12.375 0-6.44 3.726-12.375 10.673-12.375zm0 23.83c6.303 0 9.707-5.475 9.707-11.455 0-5.889-3.404-11.455-9.707-11.455-6.395 0-9.753 5.566-9.753 11.455 0 5.98 3.358 11.455 9.753 11.455zm15.363.369h-.92v-23.646h.92v5.842h.092c.874-3.496 3.634-6.578 9.293-6.395v.92c-6.487-.322-9.385 4.738-9.385 9.891zm29.396-32.848h.92v32.848h-.92v-6.625h-.092c-1.196 4.141-4.646 7.176-9.477 7.176-6.257 0-10.075-5.197-10.075-12.328 0-6.625 3.542-12.422 10.075-12.422 5.015 0 8.373 2.898 9.477 7.178h.092zm-9.569 9.569c-6.487 0-9.155 6.027-9.155 11.502 0 6.072 3.037 11.408 9.155 11.408 6.073 0 9.569-5.289 9.569-11.408 0-7.315-3.819-11.502-9.569-11.502z"
    fill="#88c0d0"
  />
  <g fill="#2e3440">
    <path
      d="m430.911 151.576h14.583c5.889 0 9.753 3.449 9.753 9.385 0 5.934-3.864 9.385-9.753 9.385h-11.454v14.078h-3.128v-32.848zm3.129 16.102h10.765c4.324 0 7.314-2.209 7.314-6.717s-2.99-6.717-7.314-6.717h-10.765zm44.528 16.746h-2.668v-4.279h-.092c-1.519 3.174-4.646 4.969-8.189 4.969-5.98 0-8.326-3.496-8.326-9.018v-15.41h2.898v15.457c.137 4.277 1.748 6.533 6.348 6.533 4.969 0 7.131-4.693 7.131-9.523v-12.467h2.898zm2.481-32.848h26.039v2.668h-11.455v30.18h-3.129v-30.18h-11.455z"
    />
    <path d="m506.625 151.576h26.039v2.668h-11.455v30.18h-3.128v-30.18h-11.456z" />
    <path d="m544.899 170.898-12.928-19.322h3.727l10.811 16.654 10.766-16.654h3.727l-12.974 19.322v13.525h-3.128v-13.525z" />
    <path d="m466.56 120.615-43.392-55.545v-15.41l48.091 62.17h25.844v-87.545h-43.464l-9.397-9.398h62.257v105.728z" />
    <path d="m421.439 14.887 43.394 55.541v15.41l-48.092-62.168h-25.843v87.545h43.463l9.401 9.4h-62.262v-105.728z" />
  </g>
</svg>
